<svg width="88" height="88" viewBox="0 0 88 88" fill="none" xmlns="http://www.w3.org/2000/svg">
<g opacity="0.3">
<path d="M44.2458 17.0206C44.2458 12.0089 40.1829 7.94601 35.1712 7.94601C30.1594 7.94601 26.0965 12.0089 26.0965 17.0206C20.0824 17.0206 15.207 21.8961 15.207 27.9102C15.207 29.9744 15.7813 31.9044 16.7788 33.5492C11.7487 34.5113 7.94727 38.9342 7.94727 44.2446C7.94727 49.5551 11.7487 53.9777 16.7788 54.94C15.7813 56.5847 15.207 58.5147 15.207 60.579C15.207 66.5933 20.0824 71.4685 26.0965 71.4685C26.0965 76.4803 30.1594 80.5432 35.1712 80.5432C40.1829 80.5432 44.2458 76.4803 44.2458 71.4685" stroke="white" stroke-width="1.275" stroke-linecap="round" stroke-linejoin="round"/>
<path d="M44.2461 71.4685C44.2461 76.4803 48.309 80.5432 53.3207 80.5432C58.3325 80.5432 62.3954 76.4803 62.3954 71.4685C68.4097 71.4685 73.2849 66.5933 73.2849 60.579C73.2849 58.5147 72.7107 56.5847 71.7132 54.94C76.7431 53.9777 80.5446 49.5551 80.5446 44.2446C80.5446 38.9342 76.7431 34.5113 71.7132 33.5492C72.7107 31.9044 73.2849 29.9744 73.2849 27.9102C73.2849 21.8961 68.4097 17.0206 62.3954 17.0206C62.3954 12.0089 58.3325 7.94601 53.3207 7.94601C48.309 7.94601 44.2461 12.0089 44.2461 17.0206" stroke="white" stroke-width="1.275" stroke-linecap="round" stroke-linejoin="round"/>
<path d="M38.753 26.0988V33.2824M26.0957 38.8046H33.5441M55.2184 38.8046H62.6665M55.2184 49.5972H62.6665M26.0957 49.5972H33.5441M38.753 55.2075V62.391M49.7351 55.2075V62.391M49.6959 26.0988V33.2824M37.174 55.0199H51.5885C53.5929 55.0199 55.2184 53.3948 55.2184 51.39V36.9122C55.2184 34.9075 53.5929 33.2824 51.5885 33.2824H37.174C35.1692 33.2824 33.5441 34.9075 33.5441 36.9122V51.39C33.5441 53.3948 35.1692 55.0199 37.174 55.0199Z" stroke="white" stroke-width="1.275" stroke-linecap="round"/>
</g>
</svg>
