<svg width="89" height="89" viewBox="0 0 89 89" fill="none" xmlns="http://www.w3.org/2000/svg">
<g opacity="0.3">
<path d="M43.7917 24.5104L49.1844 19.1178C55.2563 13.0458 63.2057 10.5272 71.6186 10.1156C74.891 9.95553 76.527 9.87549 77.8389 11.1875C79.1512 12.4995 79.071 14.1356 78.9109 17.4079C78.4992 25.8208 75.9807 33.7703 69.9088 39.8421L64.5161 45.2348C60.0752 49.6758 58.8126 50.9386 59.7448 55.7556C60.665 59.4354 61.5555 62.9986 58.8798 65.6742C55.6342 68.9198 52.6736 68.9198 49.428 65.6742L23.3522 39.5985C20.1066 36.3529 20.1065 33.3923 23.3522 30.1467C26.0278 27.471 29.5911 28.3616 33.2708 29.2817C38.0879 30.214 39.3508 28.9513 43.7917 24.5104Z" stroke="white" stroke-width="4.2705" stroke-linejoin="round"/>
<path d="M62.6484 26.3635H62.6826" stroke="white" stroke-width="5.694" stroke-linecap="round" stroke-linejoin="round"/>
<path d="M10.0273 78.9985L28.1773 60.8485" stroke="white" stroke-width="4.2705" stroke-linecap="round"/>
<path d="M31.8086 78.9985L39.0686 71.7385" stroke="white" stroke-width="4.2705" stroke-linecap="round"/>
<path d="M10.0273 57.2185L17.2873 49.9585" stroke="white" stroke-width="4.2705" stroke-linecap="round"/>
</g>
</svg>
